<svg fill="none" height="33" viewBox="0 0 34 33" width="34" xmlns="http://www.w3.org/2000/svg"><path d="m9.63379 2.80008-2.38333-2.383332c-4 3.050002-6.633338 7.750002-6.866671 13.083352h3.333331c.25-4.41669 2.51667-8.28335 5.91667-10.70002zm20.65001 10.70002h3.3333c-.25-5.33335-2.8833-10.03335-6.8666-13.083352l-2.3667 2.383332c3.3667 2.41667 5.65 6.28333 5.9 10.70002zm-3.2833.8333c0-5.11665-2.7334-9.39999-7.5-10.53332v-1.13333c0-1.38334-1.1167-2.500002-2.5-2.500002-1.3834 0-2.5 1.116662-2.5 2.500002v1.13333c-4.78338 1.13333-7.50004 5.4-7.50004 10.53332v8.3333l-3.33334 3.3334v1.6666h26.66668v-1.6666l-3.3333-3.3334zm-10 18.3333c.2333 0 .45-.0166.6666-.0666 1.0834-.2334 1.9667-.9667 2.4-1.9667.1667-.4.25-.8333.25-1.3h-6.6666c.0166 1.8333 1.5 3.3333 3.35 3.3333z" fill="#fff"/></svg>