<svg fill="none" height="24" viewBox="0 0 38 24" width="38" xmlns="http://www.w3.org/2000/svg"><path d="m25.667 10.3333c2.7667 0 4.9833-2.23338 4.9833-5.00005 0-2.76666-2.2166-4.999998-4.9833-4.999998s-5 2.233338-5 4.999998c0 2.76667 2.2333 5.00005 5 5.00005zm-13.3333 0c2.7666 0 4.9833-2.23338 4.9833-5.00005 0-2.76666-2.2167-4.999998-4.9833-4.999998-2.76671 0-5.00004 2.233338-5.00004 4.999998 0 2.76667 2.23333 5.00005 5.00004 5.00005zm0 3.3333c-3.88337 0-11.666708 1.95-11.666708 5.8333v4.1667h23.333308v-4.1667c0-3.8833-7.7833-5.8333-11.6666-5.8333zm13.3333 0c-.4833 0-1.0333.0333-1.6167.0833 1.9334 1.4 3.2834 3.2834 3.2834 5.75v4.1667h10v-4.1667c0-3.8833-7.7834-5.8333-11.6667-5.8333z" fill="#fff"/></svg>