<svg fill="none" height="47" width="157" xmlns="http://www.w3.org/2000/svg"><path clip-rule="evenodd" d="M0 7.335A7.335 7.335 0 0 1 7.335 0h141.38a7.335 7.335 0 0 1 7.336 7.335v32.33A7.335 7.335 0 0 1 148.715 47H7.335A7.335 7.335 0 0 1 0 39.665z" fill="#000" fill-rule="evenodd"/><g fill="#fff"><path d="M50.825 15V7.89h2.007c.619 0 1.165.137 1.64.41a2.76 2.76 0 0 1 1.1 1.168c.26.504.391 1.084.395 1.738v.454c0 .67-.13 1.258-.39 1.763a2.713 2.713 0 0 1-1.11 1.162c-.478.27-1.036.408-1.674.415zm.938-6.338v5.571h.986c.723 0 1.284-.224 1.685-.673.403-.45.605-1.09.605-1.92v-.414c0-.808-.19-1.434-.571-1.88-.378-.45-.915-.677-1.612-.684zm5.244 3.648c0-.518.1-.984.303-1.397.205-.413.488-.732.85-.957a2.318 2.318 0 0 1 1.244-.337c.72 0 1.3.25 1.744.747.445.498.668 1.16.668 1.987v.064c0 .514-.099.977-.297 1.387a2.226 2.226 0 0 1-.845.952 2.327 2.327 0 0 1-1.26.342c-.716 0-1.297-.25-1.743-.747-.443-.499-.664-1.158-.664-1.978zm.908.107c0 .586.135 1.056.405 1.411.274.355.638.532 1.094.532a1.3 1.3 0 0 0 1.094-.537c.27-.361.405-.866.405-1.513 0-.58-.138-1.049-.415-1.407a1.303 1.303 0 0 0-1.094-.542c-.446 0-.805.178-1.079.533-.273.354-.41.862-.41 1.523zm9.712 1.338l1.016-4.038h.903L68.008 15h-.733l-1.284-4.004L64.741 15h-.732l-1.533-5.283h.898l1.04 3.955 1.23-3.955h.728zm3.696-4.038l.03.664a1.925 1.925 0 0 1 1.582-.762c1.116 0 1.68.63 1.689 1.89V15h-.903v-3.496c-.004-.381-.091-.663-.264-.845-.17-.182-.434-.273-.796-.273-.293 0-.55.078-.771.234a1.592 1.592 0 0 0-.518.615V15h-.903V9.717zM76.968 15h-.903V7.5h.903zm1.21-2.69c0-.518.102-.984.303-1.397.206-.413.489-.732.85-.957.365-.225.78-.337 1.245-.337.72 0 1.3.25 1.743.747.446.498.67 1.16.67 1.987v.064c0 .514-.1.977-.299 1.387a2.225 2.225 0 0 1-.844.952 2.328 2.328 0 0 1-1.26.342c-.716 0-1.297-.25-1.743-.747-.443-.499-.664-1.158-.664-1.978zm.909.107c0 .586.135 1.056.405 1.411.274.355.638.532 1.094.532a1.3 1.3 0 0 0 1.094-.537c.27-.361.405-.866.405-1.513 0-.58-.138-1.049-.415-1.407a1.303 1.303 0 0 0-1.094-.542c-.446 0-.805.178-1.079.533-.273.354-.41.862-.41 1.523zM87.383 15c-.052-.104-.095-.29-.127-.557-.42.437-.921.655-1.504.655-.52 0-.949-.147-1.284-.44a1.44 1.44 0 0 1-.498-1.123c0-.55.208-.976.625-1.28.42-.305 1.009-.458 1.767-.458h.88v-.415c0-.316-.095-.567-.284-.752-.189-.189-.467-.283-.835-.283-.322 0-.592.081-.81.244-.219.163-.328.36-.328.59h-.908c0-.263.093-.517.279-.761a1.93 1.93 0 0 1 .761-.586 2.58 2.58 0 0 1 1.06-.215c.609 0 1.085.153 1.43.46.346.302.525.72.538 1.254v2.432c0 .485.061.87.185 1.157V15zm-1.5-.689c.284 0 .553-.073.807-.22a1.33 1.33 0 0 0 .551-.57v-1.085h-.708c-1.107 0-1.66.324-1.66.972 0 .283.094.505.283.664.19.16.432.24.728.24zm3.458-1.996c0-.811.192-1.462.576-1.954.384-.494.887-.742 1.509-.742.618 0 1.108.212 1.47.635V7.5h.903V15h-.83l-.044-.566c-.361.442-.864.664-1.509.664-.612 0-1.112-.251-1.499-.752-.384-.502-.576-1.156-.576-1.963zm.903.102c0 .599.124 1.068.371 1.406.248.339.59.508 1.026.508.573 0 .99-.257 1.255-.771v-2.427c-.27-.498-.686-.747-1.246-.747-.442 0-.787.17-1.035.512s-.37.848-.37 1.519zm7.202-.107c0-.518.101-.984.303-1.397a2.3 2.3 0 0 1 .85-.957c.364-.225.78-.337 1.245-.337.719 0 1.3.25 1.743.747.446.498.669 1.16.669 1.987v.064c0 .514-.099.977-.298 1.387a2.223 2.223 0 0 1-.845.952 2.325 2.325 0 0 1-1.26.342c-.716 0-1.297-.25-1.743-.747-.442-.499-.664-1.158-.664-1.978zm.909.107c0 .586.135 1.056.405 1.411a1.31 1.31 0 0 0 1.093.532 1.3 1.3 0 0 0 1.094-.537c.27-.361.406-.866.406-1.513 0-.58-.139-1.049-.415-1.407a1.305 1.305 0 0 0-1.094-.542 1.3 1.3 0 0 0-1.08.533c-.273.354-.41.862-.41 1.523zm5.888-2.7l.029.664a1.926 1.926 0 0 1 1.582-.762c1.117 0 1.68.63 1.69 1.89V15h-.903v-3.496c-.004-.381-.092-.663-.264-.845-.169-.182-.435-.273-.796-.273-.293 0-.55.078-.771.234a1.59 1.59 0 0 0-.518.615V15h-.903V9.717zm8.369-1.28v1.28h.987v.698h-.987v3.276c0 .212.044.371.132.479.088.104.238.156.449.156.105 0 .248-.02.43-.058V15a2.622 2.622 0 0 1-.693.098c-.404 0-.708-.122-.913-.367-.205-.244-.308-.59-.308-1.04v-3.276h-.962v-.698h.962v-1.28zm2.95 1.92c.4-.492.921-.738 1.562-.738 1.117 0 1.68.63 1.689 1.89V15h-.903v-3.496c-.003-.381-.091-.662-.264-.845-.169-.182-.434-.273-.795-.273-.293 0-.551.078-.772.234a1.587 1.587 0 0 0-.517.615V15h-.904V7.5h.904zm6.796 4.74c-.716 0-1.298-.234-1.748-.702-.449-.473-.673-1.102-.673-1.89v-.166c0-.524.099-.991.297-1.402.202-.413.482-.735.84-.966a2.115 2.115 0 0 1 1.172-.352c.687 0 1.221.226 1.602.679.381.452.571 1.1.571 1.943v.376h-3.579c.013.521.164.943.454 1.265.293.319.664.478 1.113.478.319 0 .589-.065.811-.195.221-.13.415-.303.581-.517l.552.43c-.443.68-1.107 1.02-1.993 1.02zm-.112-4.736c-.364 0-.67.134-.918.4-.247.264-.4.636-.459 1.114h2.647v-.068c-.026-.46-.15-.814-.371-1.065-.222-.254-.521-.38-.899-.38zM60.002 34.104h-5.858l-1.225 3.521h-2.732L55.9 22.502h2.357l5.723 15.123h-2.742zm-5.12-2.119h4.383l-2.192-6.273zm19.921.135c0 1.738-.395 3.127-1.184 4.165-.79 1.032-1.849 1.548-3.178 1.548-1.233 0-2.22-.405-2.96-1.215v5.328h-2.524v-15.56h2.326l.104 1.143c.74-.9 1.748-1.35 3.022-1.35 1.371 0 2.445.512 3.22 1.537.783 1.018 1.174 2.434 1.174 4.248zm-2.514-.218c0-1.122-.225-2.011-.675-2.67-.443-.657-1.08-.986-1.91-.986-1.032 0-1.773.426-2.223 1.278v4.985c.456.873 1.204 1.309 2.243 1.309.803 0 1.43-.322 1.88-.966.457-.651.685-1.634.685-2.95zm14.5.218c0 1.738-.395 3.127-1.184 4.165-.79 1.032-1.849 1.548-3.178 1.548-1.233 0-2.22-.405-2.96-1.215v5.328h-2.524v-15.56h2.326l.104 1.143c.741-.9 1.749-1.35 3.023-1.35 1.37 0 2.444.512 3.22 1.537.782 1.018 1.173 2.434 1.173 4.248zm-2.514-.218c0-1.122-.224-2.011-.675-2.67-.443-.657-1.08-.986-1.91-.986-1.032 0-1.773.426-2.223 1.278v4.985c.456.873 1.204 1.309 2.243 1.309.803 0 1.43-.322 1.88-.966.457-.651.685-1.634.685-2.95zm18.104 1.828c0-.665-.235-1.177-.706-1.537-.464-.36-1.305-.724-2.524-1.09-1.219-.368-2.188-.776-2.908-1.226-1.378-.866-2.067-1.995-2.067-3.386 0-1.219.495-2.223 1.485-3.012.997-.79 2.289-1.184 3.874-1.184 1.053 0 1.991.193 2.815.581.824.388 1.471.942 1.942 1.662.471.713.707 1.506.707 2.379h-2.618c0-.79-.249-1.406-.748-1.85-.491-.45-1.198-.674-2.119-.674-.858 0-1.526.183-2.004.55-.47.367-.706.88-.706 1.537 0 .554.256 1.018.768 1.392.513.367 1.357.727 2.535 1.08 1.177.346 2.122.745 2.835 1.195.713.443 1.236.955 1.568 1.537.333.575.499 1.25.499 2.025 0 1.26-.485 2.264-1.454 3.012-.963.741-2.271 1.112-3.926 1.112-1.094 0-2.102-.201-3.023-.603-.914-.408-1.627-.97-2.14-1.682-.505-.714-.757-1.544-.757-2.493h2.627c0 .859.284 1.523.852 1.994.568.471 1.381.706 2.44.706.915 0 1.6-.183 2.057-.55.464-.374.696-.866.696-1.475zm7.852-10.075v2.732h1.984v1.87h-1.984v6.273c0 .43.083.74.25.935.173.187.477.28.914.28.291 0 .585-.035.883-.104v1.953a6.218 6.218 0 0 1-1.662.239c-1.939 0-2.909-1.07-2.909-3.21v-6.367h-1.848v-1.87h1.848v-2.73zm3.137 8.247c0-1.1.218-2.091.654-2.97.437-.887 1.05-1.565 1.839-2.036.789-.478 1.696-.717 2.721-.717 1.517 0 2.746.488 3.687 1.465.949.976 1.461 2.27 1.538 3.884l.01.592c0 1.108-.215 2.098-.644 2.97a4.678 4.678 0 0 1-1.828 2.026c-.789.478-1.703.717-2.742.717-1.586 0-2.856-.527-3.812-1.579-.949-1.06-1.423-2.469-1.423-4.227zm2.524.218c0 1.157.239 2.064.717 2.721.477.651 1.142.977 1.994.977s1.513-.333 1.984-.997c.478-.665.716-1.638.716-2.919 0-1.136-.245-2.036-.737-2.7-.485-.665-1.146-.998-1.984-.998-.824 0-1.478.33-1.963.987-.485.651-.727 1.627-.727 2.93zm15.943-3.427a6.24 6.24 0 0 0-1.028-.084c-1.156 0-1.935.444-2.337 1.33v7.686h-2.524V26.387h2.41l.062 1.257c.61-.977 1.454-1.465 2.534-1.465.361 0 .658.048.894.145zm6.336 9.14c-1.599 0-2.898-.502-3.895-1.506-.99-1.011-1.485-2.355-1.485-4.03v-.312c0-1.122.215-2.122.644-3.002.436-.886 1.045-1.575 1.828-2.066a4.818 4.818 0 0 1 2.617-.738c1.531 0 2.711.488 3.542 1.465.838.976 1.257 2.357 1.257 4.144v1.018h-7.343c.076.928.384 1.662.924 2.202.547.54 1.233.81 2.057.81 1.156 0 2.098-.468 2.825-1.402l1.36 1.298a4.572 4.572 0 0 1-1.807 1.568c-.748.367-1.589.55-2.524.55zm-.301-9.629c-.693 0-1.253.243-1.683.728-.422.484-.692 1.16-.81 2.025h4.809v-.187c-.055-.845-.28-1.482-.675-1.911-.395-.436-.942-.655-1.641-.655z"/><path clip-rule="evenodd" d="M31.006 8.078c-1.55.065-3.427 1.032-4.538 2.331-1 1.154-1.871 2.996-1.636 4.762 1.73.136 3.492-.877 4.57-2.178 1.075-1.302 1.802-3.11 1.604-4.915zm-.439 30.735c2.1-.04 3.43-1.904 4.716-3.78a16.947 16.947 0 0 0 2.122-4.342l.012-.036-.008-.003c-.2-.082-4.089-1.66-4.127-6.22-.039-3.897 3.183-5.768 3.325-5.862-1.81-2.643-4.628-3.006-5.633-3.047-1.467-.148-2.89.412-4.053.87-.74.29-1.373.54-1.847.54-.526 0-1.178-.259-1.908-.548-.957-.38-2.05-.813-3.179-.792-2.613.04-5.025 1.519-6.37 3.858-2.72 4.71-.698 11.688 1.95 15.507 1.296 1.868 2.837 3.97 4.865 3.894 1.95-.078 2.69-1.26 5.05-1.26 1.205 0 1.966.329 2.7.646.7.303 1.376.594 2.385.575z" fill-rule="evenodd"/></g></svg>