<svg fill="none" height="85" viewBox="0 0 72 85" width="72" xmlns="http://www.w3.org/2000/svg"><g stroke-miterlimit="282" stroke-width=".175173"><path d="m36.0686.127441c-8.4755 0-24.1038 2.200489-32.06273 6.844879-10.47869 37.28148 3.77228 62.63378 32.06273 77.02328 28.2907-14.3895 42.5417-39.8673 32.0628-77.02306-7.9669-4.64461-23.5874-6.845099-32.0628-6.845099z" fill="#9c824a" stroke="#9c824a"/><path d="m36.0675 2.52466c-8.3267 0-17.7022 1.06882-29.9811 6.09825-9.14063 32.54279 1.46353 58.62599 29.9811 72.84219 28.5176-14.2162 39.1138-40.2996 29.9732-72.84219-12.2789-5.02943-21.6465-6.09825-29.9732-6.09825z" fill="#023474" stroke="#023474"/><path d="m36.0299 2.49292c-8.2877 0-17.1857 1.23368-25.2152 4.28303-8.32672 33.32085-2.18328 57.65125 25.2622 74.66545zm.047 78.94848c27.4452-17.0142 33.581-41.3446 25.254-74.66545-8.0292-3.04935-16.9196-4.28303-25.207-4.28303z" fill="#fff" stroke="#fff"/><path d="m36.0759 2.48511c-8.3346 0-16.7709 1.2651-23.6264 3.66187-8.6242 34.92412-1.6984 58.50782 23.6342 74.62602z" fill="#ef0107" stroke="#ef0107"/><path d="m36.0917 2.48511c8.3344 0 16.771 1.2651 23.6342 3.66187 8.6241 34.92412 1.6981 58.50782-23.6419 74.62602z" fill="#db0007" stroke="#db0007"/></g><path d="m25.3077 55.1853c-3.6782 2.5309-6.605 3.4423-10.0015 4.3461l-2.0503-3.1985c3.1226-1.5873 6.3546-3.7958 9.6103-6.994.2738 3.1038 1.7136 5.304 2.4415 5.8464z" fill="#fff"/><path d="m24.807 55.0519c-3.4902 2.4045-8.3503 4.0785-13.9144 4.8958l-1.13479-1.7287c4.76589-1.7923 9.36749-4.4639 12.93629-8.2202.54 2.4045 1.3616 4 2.1129 5.0531z" fill="#9c824a"/><path d="m15.5092 40.3642c0 1.3439-1.0798 2.4284-2.4181 2.4284s-2.4261-1.0845-2.4261-2.4284 1.0878-2.4282 2.4261-2.4282 2.4181 1.0843 2.4181 2.4282z" fill="#fff"/><path d="m15.251 35.5779v9.1633h7.1919c.4695-3.0728 2.2069-6.3342 6.1433-9.1633z" fill="#fff"/><path d="m15.5404 44.7412c-1.6044.0234-2.9268-1.9962-2.9504-4.5267-.0157-2.5306 1.2679-4.6052 2.8801-4.6366h.0549" fill="#fff"/><path d="m14.4921 40.364c0 1.0374-.7512 1.8705-1.6747 1.8705s-1.6748-.8329-1.6748-1.8705c0-1.0374.7513-1.8703 1.6748-1.8703.9235-.0003 1.6747.8329 1.6747 1.8703z" fill="#9c824a"/><path d="m15.4473 36.0576v8.2357h7.1372c.5635-2.7347 1.9487-5.6424 5.4076-8.2357z" fill="#9c824a"/><path d="m15.7118 44.2933c-1.5105.0316-2.7469-1.7916-2.7702-4.0629-.0157-2.271 1.1973-4.1416 2.7076-4.1728h.047" fill="#9c824a"/><path d="m49.7247 46.8865c0 7.6468-6.1666 13.8391-13.7813 13.8391-7.6068 0-13.7813-6.1923-13.7813-13.8391 0-7.6464 6.1745-13.8391 13.7813-13.8391 7.6147 0 13.7813 6.1927 13.7813 13.8391z" fill="#fff"/><path d="m49.0058 46.8867c0 7.2459-5.8462 13.116-13.0616 13.116-7.2076 0-13.0536-5.8701-13.0536-13.116 0-7.2377 5.846-13.1159 13.0536-13.1159 7.2154-.0003 13.0616 5.8703 13.0616 13.1159z" fill="#9c824a"/><path d="m46.8371 46.8869c0 6.0434-4.8758 10.9396-10.8937 10.9396-6.0103 0-10.8858-4.8962-10.8858-10.9396s4.8755-10.9394 10.8858-10.9394c6.0179 0 10.8937 4.896 10.8937 10.9394z" fill="#fff"/><path d="m46.1171 46.8869c0 5.6424-4.5549 10.2085-10.174 10.2085-5.6111 0-10.1658-4.5661-10.1658-10.2085s4.5547-10.2082 10.1658-10.2082c5.6191-.0002 10.174 4.5658 10.174 10.2082z" fill="#9c824a"/><path d="m40.1835 46.8868c.0079 2.3499-1.8938 4.2596-4.2338 4.2673-2.3476 0-4.2495-1.9095-4.2495-4.2593v-.008c0-2.3498 1.894-4.2593 4.2415-4.2593 2.3399-.0078 4.2416 1.9019 4.2416 4.2516.0002.0077.0002.0077.0002.0077z" fill="#fff"/><path d="m39.6839 46.8867c0 2.0751-1.6673 3.7566-3.7331 3.7566-2.0659 0-3.7407-1.6736-3.7487-3.7484v-.0079c0-2.0746 1.6748-3.7566 3.7408-3.7566s3.741 1.674 3.741 3.7486z" fill="#9c824a"/><path d="m37.8688 46.8866c0 1.0608-.8609 1.9252-1.9251 1.9329-1.0565 0-1.9173-.8641-1.9173-1.9329 0-1.0686.8608-1.9252 1.9173-1.933 1.064-.0002 1.9251.8644 1.9251 1.933z" fill="#fff"/><path d="m37.3357 46.8866c0 .7701-.6183 1.3987-1.3929 1.3987-.767 0-1.393-.6209-1.393-1.3987 0-.7699.626-1.3986 1.393-1.3986.7667-.0002 1.3929.6205 1.3929 1.3986z" fill="#9c824a"/><path d="m37.375 36.4429h-2.8955v6.7818h2.8955z" fill="#fff"/><path d="m36.928 35.468h-1.9954v8.621h1.9954z" fill="#9c824a"/><path d="m44.0114 40.2695 1.5808 2.4362-5.6658 3.6939-1.5729-2.4363z" fill="#fff"/><path d="m45.0681 40.1204 1.0878 1.6818-7.2 4.6994-1.0877-1.6895z" fill="#9c824a"/><path d="m31.8808 47.4368 1.5496 2.4518-5.7051 3.6309-1.5495-2.4598z" fill="#fff"/><path d="m32.8514 47.2952 1.0721 1.6975-7.2467 4.6129-1.0723-1.6975z" fill="#9c824a"/><path d="m37.375 50.7769h-2.8955v6.7815h2.8955z" fill="#fff"/><path d="m36.928 49.8103h-1.9954v8.613h1.9954z" fill="#9c824a"/><path d="m33.118 50.0537c.3914.33.8216.6287 1.3616.8566l-.0156 6.0511c-2.7313-.3536-4.7972-1.7052-6.3624-3.6304l5.0243-3.2773" fill="#ef0107"/><path d="m33.118 50.0537c.3914.33.8216.6287 1.3616.8566l-.0156 6.0511c-2.7313-.3536-4.7972-1.7052-6.3624-3.6304l5.0243-3.2773" stroke="#ef0107" stroke-miterlimit="282" stroke-width=".06881"/><path d="m38.7601 50.0774c-.3991.3222-.8219.6287-1.3617.8486l.0078 6.0514c2.7312-.3536 4.7974-1.7053 6.3626-3.6307l-5.0164-3.2691" fill="#db0007"/><path d="m38.7601 50.0774c-.3991.3222-.8219.6287-1.3617.8486l.0078 6.0514c2.7312-.3536 4.7974-1.7053 6.3626-3.6307l-5.0164-3.2691" stroke="#db0007" stroke-miterlimit="282" stroke-width=".06881"/><path d="m40.1301 47.5391 5.979-.7232c.0469 1.5008-.3132 2.8212-.8219 4.0865l-5.1729-3.3633" fill="#db0007"/><path d="m40.1377 47.5153c.0234-.0943.0157-.1806.0549-.4557l5.9009-.77c.0234.275.0077.377 0 .5027z" fill="#fff" stroke="#fff" stroke-miterlimit="282" stroke-width=".06881"/><path d="m48.8701 42.5254h7.74c-.2428.9192-.4777 1.8544-1.589 2.2711-1.7765.6683-5.4623 1.3124-5.4623 1.3124-.0706-1.0139-.2975-2.3894-.6887-3.5835z" fill="#fff"/><path d="m43.4795 35.4446 20.222.0234-.7121 7.4185-13.8128.7232c-.7435-3.3165-3.2558-6.4833-5.6971-8.1651z" fill="#fff"/><path d="m44.1992 35.9712 25.8177.0234-.9861 6.0436-20.0344.9903c-.7905-3.0022-2.598-5.1947-4.7972-7.0573z" fill="#9c824a"/><path d="m48.8701 42.5254h7.1291c-.2346.817-.3991 1.5636-1.4476 1.9329-1.6669.5973-5.0241 1.0689-5.0241 1.0689-.1409-.9821-.3445-1.9803-.6574-3.0018z" fill="#9c824a"/><path d="m41.044 24.6704c0 .3302-.0704 1.2339-.1094 1.4853h4.0069c-.243-1.069-.3526-2.5541-.3837-3.7015 0 .0786-.0703-2.3027-.0703-2.3027 0-.1651.0703-.4164.172-.495.1411-.1651.282-.1651.4542-.1651.172-.0785.4851-.0785.5242.5738l.1018 2.4676c.0391 1.1551.0391 2.7192-.1018 3.6229h3.8582c-.0315-.3301-.1409-1.1553-.1722-1.399.4851 1.0689 1.5339 1.6424 2.9269 1.6424.8295 0 1.4633-.3224 1.9486-.6523 0 .0785.2036.4089.2036.4089h7.1685c-.3131-1.069-.5166-2.5541-.626-3.7015l-1.0097-8.063-3.6861-.6601c.3134 1.0688.5246 2.6326.6574 3.7015l.5634 5.1867c.1019.9038.1724 1.894.1724 2.9626v.0786l-.1411-.3302c-.2816-.6601-.4148-1.4773-.5244-2.7112l-.1329-1.6504c-.2113-2.6326-1.6356-3.7802-4.7739-3.7802-.5164 0-1.8391.0785-2.645.3301l.2112 2.9549.8375-.4873c.6966-.4164 1.2131-.5815 1.8389-.5815.4932 0 .8062.1653.9471.4952-.5945.0863-1.2523.2514-1.9877.5736-1.1114.495-1.808 1.2414-2.1209 2.0589v-.0786l-.1096-2.7192c-.0624-1.7289-1.1815-2.8763-2.8878-2.8763-.759 0-1.4558.2437-2.0816.6601-.0391-.0865-.0704-.1653-.1096-.2516l-.1409-.3301-3.201-.1651c.1409.5815.3524 2.2241.3837 2.7979-.1724-.8174-.6262-1.7211-1.4637-2.3812-.6572-.4165-1.4947-.6601-2.3632-.6601-1.182 0-2.4027.495-3.201 1.3202-.8373.8172-1.2523 1.9725-1.2913 3.285-.3129-.3302-.7277-.6524-1.213-.8172l-1.4636-.7467h-.0703c-.3442-.1653-.3835-.2438-.3835-.3224.0393-.1651.3835-.3301.8375-.3301.6261 0 1.4949.3301 2.1912.7388l.0704-2.6326c-.5244-.2516-1.2521-.4087-2.3008-.4087-.5557 0-1.5965.0785-2.5044.5735-.2428.1651-.454.3302-.6573.4953l.0313-.7469c-.8373-.1571-1.7374-.1571-2.8488.9117-.039-.0865-.1096-.4952-.1799-.6601l-3.4433.1651c.2426.9825.2816 2.3813.2113 3.6152l-.0704 1.3202v.1651c-.0392.6601-.0703 1.3987-.1409 2.0588-.2818-.9117-.587-2.1453-.8375-3.1276l-1.7059-7.7329-4.8678.7386c.0314.0786.1017.3302.141.5736.0315.3302.0315.9903-.4225 2.389-.7983 2.2164-1.9097 5.5955-2.9895 7.9766-.14092.3301-.42252.8251-.42252.8251h3.79542c.0706-.5738.3131-1.5638.5557-2.3027.5244 0 1.8783 0 2.5041-.0865.1409.5815.2818 1.3202.3211 1.8152l.0626.5738h7.5911c-.1722-1.2339-.1019-2.8765-.039-3.788.0703-1.0688.2816-1.8075.7356-2.2162.3442-.4164.7277-.495 1.0095-.495-.039 1.4773.9001 2.1376 1.7374 2.5461l1.4946.7464c.5244.3302.5244.4088.5244.5738-.0313.2437-.454.3302-.8373.3302-.7982 0-1.8783-.4952-3.06-1.8075l-.0703 3.4499c.9391.495 2.1208.7387 3.1696.7387 1.7374 0 3.5842-.8175 4.0695-2.3813.8686 1.6424 2.5747 2.3813 4.2495 2.3813 1.4944.0013 2.6055-.4862 3.584-1.5626zm-26.1385-3.3715c.2112-.5736.3832-1.0688.6963-1.9726.2113.9038.3129 1.4776.4148 1.894-.4148.0786-.626.0786-1.1111.0786zm21.302-.9037c0-1.1474.4148-1.6424.8298-1.6424.1409 0 .4538-.0866.5945.495.0703.2436.1016.4087.1016.4873 0 .3301-.172.4164-.3832.4164v.0786s-.587.1651-1.1427.4164c0-.0863 0-.1648 0-.2513zm3.9676 2.389c-.7358.6523-1.26 1.0688-2.1286 1.0688-.6963-.0865-1.1113-.4952-1.3539-1.0688.7279-.2514 3.5452-1.3202 4.3511-1.6504 0 .6601.0316 1.3988.0316 1.3988v1.399zm12.9753 1.1476c-.6571 0-.7982-.4953-.8295-.8175.0313-.3301.133-.8251 1.1815-1.1551.0315.4087.0703.7387.0703.7387v.3299c.0316.2514.0316.495.0627.7387-.1328.0865-.3048.0865-.485.1653z" fill="#9c824a"/><g fill="#fff"><path d="m32.0602 17.4324c-.3442-.0786-.8686-.2437-1.7059-.2437-.6573 0-1.5261.1651-2.1914.4953-.7669.495-1.3226 1.1473-1.3539 1.894-.0704 1.1473.5243 1.6424 1.3929 2.0511.587.3301 1.1504.6601 1.4949.8252.4538.2436.8686.495.8373 1.0688-.0391.5738-.5634.9903-1.432.9903-.7279 0-1.7688-.4951-2.5044-1.1554l-.0313 1.7289c.626.3302 1.6355.4951 2.5747.4951 1.5965 0 3.5842-.7387 3.6155-2.5542.039-1.3987-.9389-1.894-1.5259-2.2162-.5948-.2513-1.1897-.5813-1.4634-.6601-.2818-.165-.8375-.3299-.7982-.9902.0626-.5736.7279-.8252 1.4243-.8252.587 0 1.1817.1651 1.6355.4165"/><path d="m17.7633 14.3909-3.6938.495c.0705.4952-.0704 1.4775-.4538 2.6327-.759 2.2162-2.0113 5.9174-2.9897 8.0628h2.301c.133-.7464.3052-1.3988.6574-2.3025l3.4121-.0865c.133.6601.3835 1.7289.4148 2.389h3.0991c-.3835-.9115-.8686-2.7977-1.1815-4.1179zm-3.6938 7.4815 1.6748-4.8489 1.0097 4.7703"/><path d="m26.5982 17.4324-.0703 1.6503c-.5557-.0863-1.2521.0786-1.8078.6524-.4853.495-.7982 1.2339-.8686 2.5541-.0705 1.0688-.1018 2.3027-.0392 3.2928h-2.6062c.1722-.9901.2427-2.1377.2738-3.214l.0704-1.3125c.0703-1.0688.0703-2.1376-.1017-3.1277l2.3008-.0785c.1019.3301.1722.9037.1332 1.4773 1.0095-1.5643 1.9877-1.8942 2.7156-1.8942z"/><path d="m59.4212 14.8859-2.3714-.4164c.2428 1.0768.3131 1.8154.454 2.884l.5559 5.179c.1094 1.0689.2113 2.0591.1798 3.0492h2.5749c-.2505-.9901-.3522-1.9803-.4541-3.0492"/><path d="m48.8009 25.5817c-.1332-.99-.2038-1.9803-.243-3.0491l-.1017-2.7112c-.0703-1.4853-.9076-2.3025-2.3008-2.3025-.759 0-1.6671.2436-2.4338 1.2337-.0313-.2514-.1409-.9038-.2816-1.2337l-2.0816-.0865c.172.9902.2426 1.9725.2737 3.0414l.0392 2.0588c.0313 1.0688 0 2.0591-.0703 3.0491h2.606c-.1332-.99-.2036-1.9803-.2428-3.0491l-.0704-2.3025c-.0313-.8252.5948-1.399 1.221-1.399.7277 0 1.0798.4951 1.1114 1.2339l.1094 2.4676c.0315 1.0688.0315 2.0591-.0391 3.0491"/><path d="m56.9484 25.5814c-.3129-.8252-.4851-1.8152-.5557-2.8841l-.1411-1.6426c-.1409-1.9725-.97-3.2927-4.1789-3.2927-.5557 0-1.3539.0865-2.0111.2436l.1017 1.4853c.6571-.4087 1.3226-.7387 2.1599-.7387.8686 0 1.5965.4087 1.6671 1.6424-.8375.0865-1.6045.2437-2.4731.6601-.9702.4087-1.9799 1.2339-1.8783 2.5462.1017 1.4853 1.2208 2.1454 2.614 2.1454 1.0798 0 1.8077-.4951 2.2225-.9901.0703.33.1799.5736.2816.8252zm-3.7956-1.0688c-.7672 0-1.3928-.4165-1.4243-1.3202 0-.9038.5557-1.6424 2.3321-1.894l.1019 1.3989c.039.4951.039.8252.1094 1.234-.2501.3299-.6651.495-1.1191.5813z"/><path d="m39.1982 17.6834c-.5945-.4165-1.2911-.5816-2.0188-.5816-1.7061 0-3.9679 1.2339-3.8975 4.3616.0313 3.2065 2.473 4.1965 4.1791 4.1965 1.4946 0 2.4027-.5738 3.1302-1.3125l-.5244-.7466c-.3833.3302-1.0095.8252-2.019.8252-1.0801-.0786-1.7687-.8252-2.1522-1.9726l4.7269-1.7289c-.1409-1.5636-.6964-2.4673-1.4243-3.0411zm-1.6355 3.0413-1.8784.7387c-.039-.3299-.0703-.6601-.0703-1.0688 0-1.894 1.0408-2.224 1.3928-2.224.5559-.0785 1.041.2514 1.2207.9115.2038.7389.1334 1.399-.6648 1.6426z"/><path d="m26.4248 42.1477 1.5886-2.4285 5.6503 3.7093-1.5887 2.4361z"/></g><path d="m25.9033 41.3148 1.0957-1.6817 7.1764 4.7229-1.0958 1.682z" fill="#9c824a"/><path d="m38.4863 49.8807 1.5886-2.4364 5.6501 3.7172-1.5885 2.4364z" fill="#fff"/><path d="m37.9619 49.0478 1.0957-1.6816 7.1766 4.723-1.0957 1.674z" fill="#9c824a"/></svg>