<svg fill="none" height="25" viewBox="0 0 25 25" width="25" xmlns="http://www.w3.org/2000/svg"><path d="m12.5 0c6.903 0 12.5 5.59687 12.5 12.5 0 6.9032-5.5969 12.5-12.5 12.5-6.90304 0-12.5-5.5969-12.5-12.5 0-6.90304 5.5961-12.5 12.5-12.5z" fill="#fff"/><path d="m16.8136 5.46722h-8.62882c-1.49922 0-2.71798 1.21954-2.71798 2.71799v8.62969c0 1.4992 1.21954 2.718 2.71798 2.718h8.62972c1.4992 0 2.718-1.2195 2.718-2.718v-8.62969c-.0001-1.49845-1.2196-2.71799-2.7189-2.71799zm.8563 1.57268.3078-.00077v2.33438l-2.3515.00781-.0078-2.33438zm-5.1703 3.107c1.9508 0 2.3531 1.8312 2.3531 2.3539 0 1.296-1.0562 2.3523-2.3531 2.3523-1.2976 0-2.3531-1.0563-2.3531-2.3523-.0008-.5227.4024-2.3539 2.3531-2.3539zm5.4914 6.4977c0 .743-.6039 1.3476-1.3484 1.3476h-8.31253c-.74378 0-1.34844-.6039-1.34844-1.3476v-5.7102h1.9531c-.18124.4461-.28362 1.0555-.28362 1.5664 0 2.1204 1.72499 3.8462 3.84609 3.8462 2.1212 0 3.8453-1.7258 3.8453-3.8462 0-.5109-.1024-1.1203-.2828-1.5664h1.9296v5.7102z" fill="#00adee"/></svg>