<svg fill="none" height="32" width="99" xmlns="http://www.w3.org/2000/svg"><clipPath id="a"><path d="M0 0h25v25H0z" transform="rotate(180 12.5 12.5)"/></clipPath><g clip-path="url(#a)"><g clip-rule="evenodd" fill-rule="evenodd"><path d="M.489 15.452a9.06 9.06 0 1 1 18.12 0 9.06 9.06 0 0 1-18.12 0z" fill="#fff"/><g fill="#00adee"><path d="M12.948 23.851l-3.391-2.075v-3.143l2.831-2.057 3.305.742.659 4.115zm5.602-9.415l-2.857 2.882-3.305-.742-1.081-3.33 2.042-3.142 4.018.771zm-12.08 9.54l3.07-2.2v-3.142l-2.833-2.058-3.305.742-.499 4.292zM.55 14.389l2.853 2.929 3.304-.742 1.082-3.33-2.042-3.142-4.008.753z"/><path d="M7.789 6.564l-2.042 3.54 2.042 3.143h3.518l2.043-3.143-2.043-3.54z"/></g></g><g fill="#fff"><path d="M1.29 10.663A9.481 9.481 0 0 0 .068 14.33l-.002.013a9.511 9.511 0 0 0 2.441 7.551.49.49 0 0 0 .088.094 9.576 9.576 0 0 0 3.756 2.461c1 .357 2.077.552 3.198.552a9.498 9.498 0 0 0 3.628-.717 9.59 9.59 0 0 0 3.497-2.482.504.504 0 0 0 .082-.093 9.508 9.508 0 0 0 2.282-7.316l-.001-.013a9.47 9.47 0 0 0-.393-1.835l5.129-5.129a.488.488 0 0 0-.69-.69l-4.822 4.82a9.49 9.49 0 0 0-.446-.868.477.477 0 0 0-.056-.095 9.592 9.592 0 0 0-5.463-4.275l3.44-3.44a.489.489 0 0 0-.69-.69l-3.867 3.867a9.552 9.552 0 0 0-9.826 4.517.487.487 0 0 0-.061.102zm4.225-.019l1.738 2.673-.924 2.843-2.196.493-.57.129-2.497-2.564a8.505 8.505 0 0 1 .99-2.924zm6.329 2.673l1.736-2.672 3.471.666a8.51 8.51 0 0 1 .986 2.95l-2.5 2.521-2.77-.622-.615-1.894zm4.812 6.921l-.44-2.752 1.902-1.92a8.521 8.521 0 0 1-1.463 4.672zm-5.703-6.503l.862 2.655-2.258 1.64L7.3 16.39l.863-2.655zM.978 15.527l1.913 1.965-.338 2.908a8.525 8.525 0 0 1-1.575-4.872zm2.437 5.907l.433-3.716 1.05-.235L6.6 17.1l2.452 1.781v2.644l-2.65 1.899a8.603 8.603 0 0 1-2.986-1.991zm4.15 2.357l2.004-1.435 2.233 1.366a8.548 8.548 0 0 1-4.236.07zm5.422-.489l-2.941-1.8v-2.62l1.73-1.256.722-.525 2.766.62.568 3.554a8.612 8.612 0 0 1-2.845 2.028zm3.309-13.13l-2.635-.506-1.341-2.325a8.606 8.606 0 0 1 3.976 2.831zm-5.298-3.168l1.78 3.085-1.735 2.67H8.054l-1.735-2.67L8.1 7.004a8.59 8.59 0 0 1 2.899 0zm-4.221.337L5.436 9.665l-2.625.493a8.605 8.605 0 0 1 3.966-2.817z"/><path d="M18.275 7.416L24.857.834a.488.488 0 1 0-.69-.69l-6.582 6.58a.489.489 0 0 0 .69.692zm-1.387-5.903a.492.492 0 0 0 .488-.489.491.491 0 0 0-.488-.488.49.49 0 0 0 0 .977z"/></g></g><path d="M34.984 25.384c-.736 0-1.44-.104-2.112-.312s-1.288-.52-1.848-.936-1.048-.92-1.464-1.512a7.558 7.558 0 0 1-.984-2.112l3.048-1.2c.224.864.616 1.584 1.176 2.16.56.56 1.296.84 2.208.84.336 0 .656-.04.96-.12.32-.096.6-.224.84-.384.256-.176.456-.392.6-.648s.216-.552.216-.888c0-.32-.056-.608-.168-.864s-.304-.496-.576-.72c-.256-.224-.6-.44-1.032-.648a14.53 14.53 0 0 0-1.56-.648l-1.056-.384a8.503 8.503 0 0 1-1.416-.648c-.464-.272-.888-.6-1.272-.984s-.704-.832-.96-1.344c-.24-.528-.36-1.12-.36-1.776 0-.672.128-1.296.384-1.872a4.663 4.663 0 0 1 1.128-1.536 5.18 5.18 0 0 1 1.752-1.032c.688-.256 1.448-.384 2.28-.384.864 0 1.608.12 2.232.36.64.224 1.176.52 1.608.888.448.352.808.744 1.08 1.176s.472.84.6 1.224l-2.856 1.2c-.16-.48-.456-.912-.888-1.296-.416-.384-.992-.576-1.728-.576-.704 0-1.288.168-1.752.504-.464.32-.696.744-.696 1.272 0 .512.224.952.672 1.32.448.352 1.16.696 2.136 1.032l1.08.36c.688.24 1.312.52 1.872.84a5.42 5.42 0 0 1 1.464 1.104c.416.432.728.928.936 1.488.224.544.336 1.176.336 1.896 0 .896-.184 1.672-.552 2.328-.352.64-.808 1.168-1.368 1.584s-1.192.728-1.896.936-1.392.312-2.064.312zm7.589-12.144h2.952v1.416h.192c.288-.496.736-.92 1.344-1.272s1.36-.528 2.256-.528c.752 0 1.464.16 2.136.48a5.338 5.338 0 0 1 1.8 1.296c.528.544.944 1.2 1.248 1.968s.456 1.608.456 2.52-.152 1.752-.456 2.52-.72 1.432-1.248 1.992a5.815 5.815 0 0 1-1.8 1.296 5.123 5.123 0 0 1-2.136.456c-.896 0-1.648-.176-2.256-.528s-1.056-.776-1.344-1.272h-.192l.192 1.68v4.92h-3.144zm6.096 9.24c.416 0 .808-.08 1.176-.24.384-.16.72-.384 1.008-.672s.52-.64.696-1.056.264-.88.264-1.392-.088-.976-.264-1.392-.408-.768-.696-1.056-.624-.512-1.008-.672c-.368-.16-.76-.24-1.176-.24s-.816.08-1.2.24c-.368.144-.696.36-.984.648s-.52.64-.696 1.056-.264.888-.264 1.416.088 1 .264 1.416.408.768.696 1.056.616.512.984.672a3.39 3.39 0 0 0 1.2.216zm13.385-9.624c.912 0 1.744.16 2.496.48a5.554 5.554 0 0 1 1.968 1.296c.56.544.992 1.2 1.296 1.968.32.768.48 1.608.48 2.52s-.16 1.752-.48 2.52a5.8 5.8 0 0 1-1.296 1.992c-.544.544-1.2.976-1.968 1.296-.752.304-1.584.456-2.496.456s-1.752-.152-2.52-.456a6.378 6.378 0 0 1-1.968-1.296 6.305 6.305 0 0 1-1.296-1.992c-.304-.768-.456-1.608-.456-2.52s.152-1.752.456-2.52a6.021 6.021 0 0 1 1.296-1.968 5.854 5.854 0 0 1 1.968-1.296c.768-.32 1.608-.48 2.52-.48zm0 9.624c.4 0 .784-.072 1.152-.216.384-.16.72-.384 1.008-.672s.512-.64.672-1.056c.176-.416.264-.888.264-1.416s-.088-1-.264-1.416c-.16-.416-.384-.768-.672-1.056s-.624-.504-1.008-.648a2.86 2.86 0 0 0-1.152-.24c-.416 0-.808.08-1.176.24-.368.144-.696.36-.984.648s-.52.64-.696 1.056c-.16.416-.24.888-.24 1.416s.08 1 .24 1.416a3.166 3.166 0 0 0 1.68 1.728c.368.144.76.216 1.176.216zm10.497-7.608h.192a3.587 3.587 0 0 1 1.392-1.416 3.988 3.988 0 0 1 2.064-.552c.272 0 .488.008.648.024s.312.048.456.096v3.12a2.936 2.936 0 0 0-.6-.192 3.478 3.478 0 0 0-.768-.072c-.992 0-1.776.304-2.352.912-.56.592-.84 1.408-.84 2.448V25H69.6V13.24h2.952zm8.232 1.056H78.72V13.24h2.064v-3.6h3.144v3.6h2.88v2.688h-2.88v4.56c0 .272.024.528.072.768.064.224.176.416.336.576.224.256.544.384.96.384.272 0 .488-.024.648-.072.16-.064.312-.144.456-.24l.888 2.76a4.789 4.789 0 0 1-1.2.384c-.416.096-.88.144-1.392.144a4.644 4.644 0 0 1-1.608-.264 3.57 3.57 0 0 1-1.176-.768c-.752-.72-1.128-1.744-1.128-3.072zm12.75 9.456c-.768 0-1.456-.096-2.064-.288a6.129 6.129 0 0 1-1.56-.744c-.432-.32-.8-.68-1.104-1.08a5.428 5.428 0 0 1-.696-1.248l2.808-1.2c.272.608.632 1.064 1.08 1.368.464.288.976.432 1.536.432.576 0 1.032-.104 1.368-.312s.504-.456.504-.744c0-.32-.144-.576-.432-.768-.272-.208-.752-.392-1.44-.552l-1.656-.36a6.078 6.078 0 0 1-1.152-.384c-.384-.176-.736-.4-1.056-.672s-.584-.6-.792-.984-.312-.832-.312-1.344c0-.576.12-1.088.36-1.536.256-.448.6-.824 1.032-1.128.432-.32.936-.56 1.512-.72a6.622 6.622 0 0 1 1.896-.264c1.12 0 2.12.224 3 .672.88.432 1.528 1.128 1.944 2.088l-2.712 1.104c-.224-.464-.552-.8-.984-1.008s-.864-.312-1.296-.312c-.448 0-.84.096-1.176.288-.336.176-.504.408-.504.696 0 .272.136.488.408.648.288.16.672.304 1.152.432l1.8.432c1.2.288 2.088.752 2.664 1.392a3.13 3.13 0 0 1 .888 2.232c0 .512-.12 1-.36 1.464s-.584.88-1.032 1.248c-.432.352-.96.632-1.584.84-.608.208-1.288.312-2.04.312z" fill="#fff"/></svg>