<svg fill="none" height="32" viewBox="0 0 99 32" width="99" xmlns="http://www.w3.org/2000/svg" xmlns:xlink="http://www.w3.org/1999/xlink"><clipPath id="a"><path d="m0 0h25v25h-25z" transform="matrix(-1 0 0 -1 25 25)"/></clipPath><g clip-path="url(#a)"><g clip-rule="evenodd" fill-rule="evenodd"><path d="m.488968 15.452c0-5.0035 4.056172-9.05971 9.059712-9.05971 5.00352 0 9.05972 4.05621 9.05972 9.05971 0 5.0036-4.0562 9.0597-9.05972 9.0597-5.00354 0-9.059712-4.0561-9.059712-9.0597z" fill="#fff"/><g fill="#00adee"><path d="m12.9485 23.8514-3.39187-2.0752v-3.1429l2.83187-2.0575 3.3046.7418.6585 4.1155z"/><path d="m18.5498 14.4357-2.857 2.882-3.3047-.7418-1.0816-3.3293 2.0423-3.1429 4.0181.7713z"/><path d="m6.47071 23.9758 3.06835-2.1992v-3.1429l-2.83203-2.0575-3.30467.7418-.49915 4.2919z"/><path d="m.550865 14.3893 2.851675 2.9284 3.30467-.7418 1.08185-3.3293-2.04239-3.1429-4.00772.7528z"/><path d="m7.78854 6.56379-2.042 3.54021 2.04239 3.1429h3.51827l2.0424-3.1429-2.0424-3.54021z"/></g></g><g fill="#fff"><path d="m1.29064 10.6634c-.641249 1.1019-1.068304 2.3428-1.2239438 3.6657-.0005722.0042-.0009537.0084-.0015259.0126-.0423432.3643-.06484986.7347-.06484986 1.1103 0 2.4799.95062256 4.7419 2.50625956 6.4411.02479.0347.05397.0664.08716.0937 1.01052 1.0748 2.26631 1.9165 3.67756 2.4337.02537.0115.05169.021.07858.0279 1.00041.3567 2.07692.5516 3.19844.5516 1.25088 0 2.44618-.2422 3.54198-.6815.0297-.009.0583-.0208.086-.0353 1.3473-.5554 2.5406-1.4107 3.4965-2.482.0313-.0277.0592-.0588.0826-.0931 1.4574-1.6769 2.3409-3.8652 2.3409-6.2561 0-.3584-.0206-.7122-.0593-1.0605-.0004-.0044-.001-.0086-.0015-.0128-.071-.6321-.2039-1.2455-.3926-1.8343l5.1291-5.12901c.1907-.19073.1907-.49992 0-.69065-.0954-.09537-.2203-.14305-.3452-.14305-.125 0-.2499.04768-.3453.14305l-4.8214 4.82116c-.1342-.2981-.2834-.5884-.4465-.8693-.0149-.0336-.0337-.0651-.0557-.0942-1.2104-2.03271-3.1536-3.57995-5.4626-4.27499l3.4397-3.43952c.1905-.19074.1905-.49992 0-.69065-.0954-.09537-.2205-.14305-.3454-.14305-.125 0-.2499.04768-.3453.14305l-3.8663 3.86658c-.5299-.09156-1.0743-.13981-1.62968-.13981-3.47805 0-6.52733 1.86977-8.19664 4.65659-.02442.0317-.04502.066-.06104.1028zm4.22478-.0193 1.73721 2.6734-.92373 2.8429-2.19555.493-.57125.1282-2.49614-2.5633c.15163-1.0475.49343-2.0343.98934-2.9243zm6.32838 2.6734 1.7365-2.672 3.4708.666c.4972.8974.8379 1.8931.9855 2.9497l-2.4994 2.5212-2.7697-.622-.6155-1.8946zm4.8117 6.921-.4404-2.7529 1.9031-1.9197c-.0227 1.7278-.5584 3.3342-1.4627 4.6726zm-5.7028-6.5035.8625 2.6545-2.25792 1.6403-2.25792-1.6405.86251-2.6543zm-9.974863 1.7925 1.913073 1.9646-.33818 2.9076c-.97847-1.3796-1.559062-3.0596-1.574893-4.8722zm2.437593 5.9061.4322-3.7153 1.05057-.2357 1.70078-.3819 2.45209 1.7815v2.6434l-2.65007 1.8993c-1.13315-.449-2.14806-1.133-2.98557-1.9913zm4.15039 2.3579 2.0031-1.4357 2.23308 1.3663c-.7185.1961-1.474.3013-2.25368.3013-.68226 0-1.34602-.0805-1.9825-.2319zm5.42128-.489-2.9415-1.7998v-2.6205l1.7295-1.2566.7224-.5249 2.7664.621.5684 3.5529c-.7944.8567-1.7613 1.5512-2.8452 2.0279zm3.3088-13.1302-2.6346-.50586-1.3418-2.32582c1.5852.54302 2.9623 1.53847 3.9764 2.83168zm-5.2982-3.16852 1.7798 3.08492-1.735 2.6697h-2.9884l-1.73492-2.6697 1.77936-3.08473c.4715-.08068.95577-.12321 1.44978-.12321.49398-.00019.97808.04234 1.44938.12302zm-4.22076.33684-1.34106 2.32487-2.62451.49301c1.01299-1.28647 2.3859-2.27676 3.96557-2.81788z"/><path d="m18.2753 7.41556 6.5816-6.581875c.1908-.190735.1908-.499916 0-.690651-.0953-.0951767-.2202-.14286043-.3452-.14286043-.1249 0-.2498.04768373-.3452.14305143l-6.5819 6.581685c-.1905.19074-.1905.49992 0 .69065.1907.19055.4999.19055.6907 0z"/><path d="m16.8877 1.51306c.1284 0 .2542-.05226.345-.14305s.1433-.21667.1433-.34561c0-.128366-.0523-.253869-.1433-.34485-.0908-.091362-.2166-.143432-.345-.143432-.1286 0-.2544.05207-.3452.143432-.0908.09079-.1431.216484-.1431.34485 0 .12894.0521.25482.1431.34561.0908.09079.2166.14305.3452.14305z"/></g></g><path d="m34.984 25.384c-.736 0-1.44-.104-2.112-.312s-1.288-.52-1.848-.936-1.048-.92-1.464-1.512c-.416-.608-.744-1.312-.984-2.112l3.048-1.2c.224.864.616 1.584 1.176 2.16.56.56 1.296.84 2.208.84.336 0 .656-.04.96-.12.32-.096.6-.224.84-.384.256-.176.456-.392.6-.648s.216-.552.216-.888c0-.32-.056-.608-.168-.864s-.304-.496-.576-.72c-.256-.224-.6-.44-1.032-.648-.416-.208-.936-.424-1.56-.648l-1.056-.384c-.464-.16-.936-.376-1.416-.648-.464-.272-.888-.6-1.272-.984s-.704-.832-.96-1.344c-.24-.528-.36-1.12-.36-1.776 0-.672.128-1.296.384-1.872.272-.592.648-1.104 1.128-1.536.496-.448 1.08-.792 1.752-1.032.688-.256 1.448-.384 2.28-.384.864 0 1.608.12 2.232.36.64.224 1.176.52 1.608.888.448.352.808.744 1.08 1.176s.472.84.6 1.224l-2.856 1.2c-.16-.48-.456-.912-.888-1.296-.416-.384-.992-.576-1.728-.576-.704 0-1.288.168-1.752.504-.464.32-.696.744-.696 1.272 0 .512.224.952.672 1.32.448.352 1.16.696 2.136 1.032l1.08.36c.688.24 1.312.52 1.872.84.576.304 1.064.672 1.464 1.104.416.432.728.928.936 1.488.224.544.336 1.176.336 1.896 0 .896-.184 1.672-.552 2.328-.352.64-.808 1.168-1.368 1.584s-1.192.728-1.896.936-1.392.312-2.064.312zm7.5887-12.144h2.952v1.416h.192c.288-.496.736-.92 1.344-1.272s1.36-.528 2.256-.528c.752 0 1.464.16 2.136.48.688.304 1.288.736 1.8 1.296.528.544.944 1.2 1.248 1.968s.456 1.608.456 2.52-.152 1.752-.456 2.52-.72 1.432-1.248 1.992c-.512.544-1.112.976-1.8 1.296-.672.304-1.384.456-2.136.456-.896 0-1.648-.176-2.256-.528s-1.056-.776-1.344-1.272h-.192l.192 1.68v4.92h-3.144zm6.096 9.24c.416 0 .808-.08 1.176-.24.384-.16.72-.384 1.008-.672s.52-.64.696-1.056.264-.88.264-1.392-.088-.976-.264-1.392-.408-.768-.696-1.056-.624-.512-1.008-.672c-.368-.16-.76-.24-1.176-.24s-.816.08-1.2.24c-.368.144-.696.36-.984.648s-.52.64-.696 1.056-.264.888-.264 1.416.088 1 .264 1.416.408.768.696 1.056.616.512.984.672c.384.144.784.216 1.2.216zm13.3849-9.624c.912 0 1.744.16 2.496.48.768.304 1.424.736 1.968 1.296.56.544.992 1.2 1.296 1.968.32.768.48 1.608.48 2.52s-.16 1.752-.48 2.52c-.304.768-.736 1.432-1.296 1.992-.544.544-1.2.976-1.968 1.296-.752.304-1.584.456-2.496.456s-1.752-.152-2.52-.456c-.752-.32-1.408-.752-1.968-1.296-.544-.56-.976-1.224-1.296-1.992-.304-.768-.456-1.608-.456-2.52s.152-1.752.456-2.52c.32-.768.752-1.424 1.296-1.968.56-.56 1.216-.992 1.968-1.296.768-.32 1.608-.48 2.52-.48zm0 9.624c.4 0 .784-.072 1.152-.216.384-.16.72-.384 1.008-.672s.512-.64.672-1.056c.176-.416.264-.888.264-1.416s-.088-1-.264-1.416c-.16-.416-.384-.768-.672-1.056s-.624-.504-1.008-.648c-.368-.16-.752-.24-1.152-.24-.416 0-.808.08-1.176.24-.368.144-.696.36-.984.648s-.52.64-.696 1.056c-.16.416-.24.888-.24 1.416s.08 1 .24 1.416c.176.416.408.768.696 1.056s.616.512.984.672c.368.144.76.216 1.176.216zm10.4977-7.608h.192c.32-.592.784-1.064 1.392-1.416.624-.368 1.312-.552 2.064-.552.272 0 .488.008.648.024s.312.048.456.096v3.12c-.176-.08-.376-.144-.6-.192-.208-.048-.464-.072-.768-.072-.992 0-1.776.304-2.352.912-.56.592-.84 1.408-.84 2.448v5.76h-3.144v-11.76h2.952zm8.232 1.056h-2.064v-2.688h2.064v-3.6h3.144v3.6h2.88v2.688h-2.88v4.56c0 .272.024.528.072.768.064.224.176.416.336.576.224.256.544.384.96.384.272 0 .488-.024.648-.072.16-.064.312-.144.456-.24l.888 2.76c-.368.176-.768.304-1.2.384-.416.096-.88.144-1.392.144-.592 0-1.128-.088-1.608-.264-.464-.192-.856-.448-1.176-.768-.752-.72-1.128-1.744-1.128-3.072zm12.7498 9.456c-.768 0-1.456-.096-2.064-.288-.592-.192-1.112-.44-1.56-.744-.432-.32-.8-.68-1.104-1.08-.304-.416-.536-.832-.696-1.248l2.808-1.2c.272.608.632 1.064 1.08 1.368.464.288.976.432 1.536.432.576 0 1.032-.104 1.368-.312s.504-.456.504-.744c0-.32-.144-.576-.432-.768-.272-.208-.752-.392-1.44-.552l-1.656-.36c-.368-.08-.752-.208-1.152-.384-.384-.176-.736-.4-1.056-.672s-.584-.6-.792-.984-.312-.832-.312-1.344c0-.576.12-1.088.36-1.536.256-.448.6-.824 1.032-1.128.432-.32.936-.56 1.512-.72.592-.176 1.224-.264 1.896-.264 1.12 0 2.12.224 3 .672.88.432 1.528 1.128 1.944 2.088l-2.712 1.104c-.224-.464-.552-.8-.984-1.008s-.864-.312-1.296-.312c-.448 0-.84.096-1.176.288-.336.176-.504.408-.504.696 0 .272.136.488.408.648.288.16.672.304 1.152.432l1.8.432c1.2.288 2.088.752 2.664 1.392.592.624.888 1.368.888 2.232 0 .512-.12 1-.36 1.464s-.584.88-1.032 1.248c-.432.352-.96.632-1.584.84-.608.208-1.288.312-2.04.312z" fill="#fff"/></svg>