<svg fill="none" height="33" width="34" xmlns="http://www.w3.org/2000/svg"><path d="M9.634 2.8L7.25.417C3.25 3.467.617 8.167.384 13.5h3.333A14.076 14.076 0 0 1 9.634 2.8zm20.65 10.7h3.333c-.25-5.333-2.883-10.033-6.866-13.083L24.384 2.8c3.367 2.417 5.65 6.283 5.9 10.7zM27 14.333c0-5.116-2.734-9.4-7.5-10.533V2.667c0-1.384-1.117-2.5-2.5-2.5a2.497 2.497 0 0 0-2.5 2.5V3.8C9.716 4.933 7 9.2 7 14.333v8.334L3.666 26v1.667h26.667V26L27 22.667zM17 32.667c.233 0 .45-.017.666-.067a3.382 3.382 0 0 0 2.4-1.967c.167-.4.25-.833.25-1.3H13.65A3.357 3.357 0 0 0 17 32.667z" fill="#fff"/></svg>