<svg fill="none" height="47" viewBox="0 0 157 47" width="157" xmlns="http://www.w3.org/2000/svg"><path clip-rule="evenodd" d="m0 7.33503c0-4.05102 3.284-7.33503 7.33503-7.33503h141.37997c4.052 0 7.336 3.284 7.336 7.33503v32.32997c0 4.051-3.284 7.335-7.336 7.335h-141.37997c-4.05102 0-7.33503-3.284-7.33503-7.335z" fill="#000" fill-rule="evenodd"/><g fill="#fff"><path d="m50.8252 15v-7.10938h2.0068c.6185 0 1.1654.13672 1.6407.41016.4752.27344.8414.66244 1.0986 1.16699.2604.50456.3922 1.08403.3955 1.73833v.4541c0 .6705-.1302 1.2581-.3906 1.7627-.2572.5045-.6267.8919-1.1084 1.1621-.4785.2701-1.0368.4085-1.6748.415zm.9375-6.33789v5.57129h.9863c.7227 0 1.2842-.2246 1.6846-.6738.4036-.4492.6055-1.0889.6055-1.919v-.415c0-.8073-.1905-1.43393-.5713-1.8799-.3776-.44922-.9147-.67708-1.6114-.68359zm5.2441 3.64749c0-.5176.1009-.9831.3028-1.3965.205-.4134.4883-.7324.8496-.95705.3646-.2246.7796-.33691 1.2451-.33691.7194 0 1.3005.24902 1.7432.74706.4459.4981.6689 1.1605.6689 1.9873v.0635c0 .5143-.0993.9766-.2978 1.3867-.1954.4069-.4769.7243-.8448.9522-.3646.2278-.7845.3418-1.2597.3418-.7162 0-1.2972-.2491-1.7432-.7471-.4427-.4981-.6641-1.1572-.6641-1.9776zm.9082.1074c0 .5859.1351 1.0563.4053 1.4111.2735.3548.638.5323 1.0938.5323.4589 0 .8235-.1791 1.0937-.5372.2702-.3613.4053-.8658.4053-1.5136 0-.5795-.1384-1.0482-.4151-1.4063-.2734-.3613-.638-.542-1.0937-.542-.446 0-.8057.1774-1.0791.5323-.2734.3548-.4102.8626-.4102 1.5234zm9.712 1.3379 1.0156-4.0381h.9033l-1.5381 5.2832h-.7324l-1.2842-4.0039-1.25 4.0039h-.7324l-1.5332-5.2832h.8984l1.0401 3.9551 1.2304-3.9551h.7276zm3.6962-4.0381.0293.6641c.4037-.50785.931-.76176 1.5821-.76176 1.1165 0 1.6797.62986 1.6894 1.88966v3.4912h-.9033v-3.4961c-.0033-.3809-.0911-.6624-.2637-.8447-.1692-.1823-.4345-.2735-.7959-.2735-.2929 0-.5501.0782-.7715.2344-.2213.1563-.3938.3613-.5175.6153v3.7646h-.9033v-5.2832zm5.6446 5.2832h-.9033v-7.5h.9033zm1.2109-2.6904c0-.5176.1009-.9831.3027-1.3965.2051-.4134.4883-.7324.8497-.95705.3645-.2246.7796-.33691 1.2451-.33691.7194 0 1.3004.24902 1.7431.74706.446.4981.669 1.1605.669 1.9873v.0635c0 .5143-.0993.9766-.2979 1.3867-.1953.4069-.4769.7243-.8447.9522-.3646.2278-.7845.3418-1.2598.3418-.7161 0-1.2972-.2491-1.7431-.7471-.4427-.4981-.6641-1.1572-.6641-1.9776zm.9082.1074c0 .5859.1351 1.0563.4053 1.4111.2734.3548.638.5323 1.0937.5323.459 0 .8236-.1791 1.0938-.5372.2702-.3613.4053-.8658.4053-1.5136 0-.5795-.1384-1.0482-.4151-1.4063-.2734-.3613-.638-.542-1.0937-.542-.446 0-.8057.1774-1.0791.5323-.2735.3548-.4102.8626-.4102 1.5234zm8.2959 2.583c-.0521-.1042-.0944-.2897-.1269-.5566-.42.4362-.9213.6543-1.5039.6543-.5209 0-.9489-.1465-1.2842-.4395-.3321-.2962-.4981-.6706-.4981-1.123 0-.5502.2084-.9766.625-1.2793.4199-.306 1.0091-.459 1.7676-.459h.8789v-.4151c0-.3157-.0944-.5664-.2832-.7519-.1888-.1888-.4671-.2832-.835-.2832-.3222 0-.5924.0814-.8105.2441-.2181.1628-.3271.3597-.3271.5908h-.9083c0-.2636.0928-.5175.2784-.7617.1888-.2474.4427-.44269.7617-.58592.3223-.14322.6754-.21484 1.0596-.21484.6087 0 1.0856.153 1.4306.45896.3451.3028.5241.7211.5371 1.2549v2.4316c0 .4851.0619.8708.1856 1.1573v.0781zm-1.499-.6885c.2832 0 .5517-.0732.8057-.2197.2539-.1465.4378-.3369.5517-.5713v-1.084h-.708c-1.1068 0-1.6602.3239-1.6602.9717 0 .2832.0944.5046.2832.6641.1889.1595.4314.2392.7276.2392zm3.457-1.997c0-.8106.1921-1.4616.5762-1.9532.3841-.49476.887-.74216 1.5088-.74216.6185 0 1.1084.21159 1.4697.63476v-2.7539h.9033v7.5h-.83l-.044-.5664c-.3613.4427-.8643.6641-1.5088.6641-.612 0-1.1116-.2507-1.499-.752-.3841-.5013-.5762-1.1556-.5762-1.9629zm.9033.1025c0 .599.1237 1.0677.3711 1.4062.2474.3386.5892.5079 1.0254.5079.5729 0 .9912-.2572 1.2549-.7715v-2.4268c-.2702-.498-.6852-.7471-1.2451-.7471-.4427 0-.7878.1709-1.0352.5127s-.3711.848-.3711 1.5186zm7.2022-.1074c0-.5176.1009-.9831.3027-1.3965.2051-.4134.4883-.7324.8496-.95705.3646-.2246.7797-.33691 1.2452-.33691.7192 0 1.3002.24902 1.7432.74706.446.4981.669 1.1605.669 1.9873v.0635c0 .5143-.099.9766-.298 1.3867-.195.4069-.477.7243-.845.9522-.364.2278-.784.3418-1.2595.3418-.7161 0-1.2972-.2491-1.7431-.7471-.4428-.4981-.6641-1.1572-.6641-1.9776zm.9082.1074c0 .5859.1351 1.0563.4053 1.4111.2734.3548.638.5323 1.0937.5323.4585 0 .8235-.1791 1.0935-.5372.27-.3613.406-.8658.406-1.5136 0-.5795-.139-1.0482-.415-1.4063-.274-.3613-.639-.542-1.0942-.542-.446 0-.8057.1774-1.0792.5323-.2734.3548-.4101.8626-.4101 1.5234zm5.8885-2.7002.029.6641c.404-.50785.931-.76176 1.582-.76176 1.117 0 1.68.62986 1.69 1.88966v3.4912h-.903v-3.4961c-.004-.3809-.092-.6624-.264-.8447-.169-.1823-.435-.2735-.796-.2735-.293 0-.55.0782-.771.2344-.222.1563-.394.3613-.518.6153v3.7646h-.903v-5.2832zm8.369-1.2793v1.2793h.987v.6982h-.987v3.2764c0 .2116.044.3711.132.4785.088.1042.238.1563.449.1563.105 0 .248-.0196.43-.0586v.7324c-.238.0651-.469.0977-.693.0977-.404 0-.708-.1221-.913-.3663-.205-.2441-.308-.5908-.308-1.04v-3.2764h-.962v-.6982h.962v-1.2793zm2.95 1.9189c.4-.49149.921-.73726 1.562-.73726 1.117 0 1.68.62986 1.689 1.88966v3.4912h-.903v-3.4961c-.003-.3809-.091-.6624-.264-.8447-.169-.1823-.434-.2735-.795-.2735-.293 0-.551.0782-.772.2344-.221.1563-.394.3613-.517.6153v3.7646h-.904v-7.5h.904zm6.796 4.7413c-.716 0-1.298-.2344-1.748-.7032-.449-.472-.673-1.1019-.673-1.8896v-.166c0-.5241.099-.9912.297-1.4014.202-.4134.482-.7357.84-.9668.362-.23437.752-.35156 1.172-.35156.687 0 1.221.22624 1.602.67876.381.4524.571 1.1002.571 1.9433v.376h-3.579c.013.5208.164.9424.454 1.2646.293.319.664.4786 1.113.4786.319 0 .589-.0652.811-.1954.221-.1302.415-.3027.581-.5175l.552.4296c-.443.6804-1.107 1.0206-1.993 1.0206zm-.112-4.7364c-.364 0-.67.1335-.918.4004-.247.2637-.4.6348-.459 1.1133h2.647v-.0684c-.026-.4589-.15-.8138-.371-1.0644-.222-.2539-.521-.3809-.899-.3809z"/><path d="m60.0022 34.104h-5.858l-1.2256 3.521h-2.7316l5.7125-15.1228h2.3578l5.7229 15.1228h-2.742zm-5.1205-2.1189h4.3831l-2.1916-6.2734zm19.9213.135c0 1.7381-.3947 3.1264-1.1841 4.165-.7893 1.0318-1.8488 1.5476-3.1782 1.5476-1.2326 0-2.2193-.405-2.9602-1.2152v5.3283h-2.5239v-15.559h2.3266l.1038 1.1425c.7409-.9002 1.7484-1.3502 3.0225-1.3502 1.371 0 2.4443.5124 3.2198 1.5372.7825 1.0178 1.1737 2.4339 1.1737 4.248zm-2.5135-.2181c0-1.1217-.2251-2.0115-.6752-2.6693-.4431-.6578-1.0802-.9867-1.9111-.9867-1.0317 0-1.7726.4258-2.2227 1.2775v4.9855c.457.8725 1.2048 1.3087 2.2435 1.3087.8032 0 1.4299-.3219 1.88-.9659.457-.6509.6855-1.6341.6855-2.9498zm14.4995.2181c0 1.7381-.3947 3.1264-1.184 4.165-.7894 1.0318-1.8488 1.5476-3.1783 1.5476-1.2325 0-2.2193-.405-2.9602-1.2152v5.3283h-2.5239v-15.559h2.3266l.1039 1.1425c.7409-.9002 1.7484-1.3502 3.0224-1.3502 1.3711 0 2.4443.5124 3.2199 1.5372.7824 1.0178 1.1736 2.4339 1.1736 4.248zm-2.5135-.2181c0-1.1217-.225-2.0115-.6751-2.6693-.4432-.6578-1.0802-.9867-1.9111-.9867-1.0318 0-1.7727.4258-2.2228 1.2775v4.9855c.457.8725 1.2049 1.3087 2.2435 1.3087.8033 0 1.4299-.3219 1.88-.9659.457-.6509.6855-1.6341.6855-2.9498zm18.1035 1.8281c0-.6648-.235-1.1772-.706-1.5372-.464-.3601-1.305-.7236-2.524-1.0906-1.2187-.367-2.1881-.7756-2.9082-1.2256-1.378-.8656-2.067-1.9943-2.067-3.386 0-1.2187.4951-2.2228 1.4853-3.0121.9971-.7894 2.2885-1.1841 3.8742-1.1841 1.0527 0 1.9907.1939 2.8147.5816.824.3878 1.471.9418 1.942 1.6619.471.7132.707 1.506.707 2.3785h-2.618c0-.7894-.249-1.4056-.748-1.8488-.491-.4501-1.198-.6751-2.1185-.6751-.8586 0-1.5268.1835-2.0046.5505-.4708.367-.7063.8794-.7063 1.5372 0 .5539.2562 1.0178.7686 1.3918.5124.367 1.3572.727 2.5348 1.0802 1.177.3462 2.122.7443 2.835 1.1944.713.4432 1.236.9556 1.568 1.5372.333.5747.499 1.2499.499 2.0254 0 1.2602-.485 2.2642-1.454 3.0121-.963.7409-2.271 1.1113-3.9262 1.1113-1.0941 0-2.1016-.2008-3.0225-.6024-.914-.4085-1.6272-.9694-2.1396-1.6826-.5055-.7132-.7582-1.5441-.7582-2.4928h2.6277c0 .8587.2839 1.5234.8517 1.9942.5678.4709 1.3814.7063 2.4409.7063.9142 0 1.5992-.1835 2.0562-.5505.464-.3739.696-.8655.696-1.4748zm7.852-10.075v2.7317h1.984v1.8696h-1.984v6.2734c0 .4293.083.7409.25.9348.173.187.477.2804.914.2804.291 0 .585-.0346.883-.1038v1.9526c-.575.1593-1.129.2389-1.662.2389-1.939 0-2.909-1.0698-2.909-3.2094v-6.3669h-1.848v-1.8696h1.848v-2.7317zm3.137 8.2469c0-1.1009.218-2.0911.654-2.9705.437-.8863 1.05-1.5649 1.839-2.0358.789-.4777 1.696-.7166 2.721-.7166 1.517 0 2.746.4881 3.687 1.4645.949.9763 1.461 2.2711 1.538 3.8845l.01.592c0 1.1079-.215 2.0981-.644 2.9706-.422.8725-1.032 1.5476-1.828 2.0254-.789.4777-1.703.7166-2.742.7166-1.586 0-2.856-.5262-3.812-1.5787-.949-1.0594-1.423-2.4685-1.423-4.2273zm2.524.2181c0 1.1564.239 2.0635.717 2.7213.477.6509 1.142.9763 1.994.9763s1.513-.3323 1.984-.9971c.478-.6647.716-1.6376.716-2.9186 0-1.1356-.245-2.0357-.737-2.7005-.485-.6647-1.146-.9971-1.984-.9971-.824 0-1.478.3289-1.963.9868-.485.6508-.727 1.6272-.727 2.9289zm15.943-3.4275c-.332-.0554-.675-.0831-1.028-.0831-1.156 0-1.935.4432-2.337 1.3295v7.686h-2.524v-11.2382h2.41l.062 1.2568c.61-.9764 1.454-1.4645 2.534-1.4645.361 0 .658.0484.894.1454zm6.336 9.1401c-1.599 0-2.898-.502-3.895-1.506-.99-1.011-1.485-2.3543-1.485-4.03v-.3116c0-1.1217.215-2.1223.644-3.0017.436-.8863 1.045-1.5753 1.828-2.0669.782-.4916 1.655-.7374 2.617-.7374 1.531 0 2.711.4881 3.542 1.4645.838.9763 1.257 2.3577 1.257 4.1442v1.0179h-7.343c.076.9278.384 1.6618.924 2.2019.547.5401 1.233.8101 2.057.8101 1.156 0 2.098-.4673 2.825-1.4021l1.36 1.2983c-.45.6716-1.052 1.1944-1.807 1.5683-.748.367-1.589.5505-2.524.5505zm-.301-9.6283c-.693 0-1.253.2424-1.683.7271-.422.4847-.692 1.1598-.81 2.0254h4.809v-.187c-.055-.8448-.28-1.4818-.675-1.9111-.395-.4363-.942-.6544-1.641-.6544z"/><path clip-rule="evenodd" d="m31.0059 8.07812c-1.5498.06495-3.4267 1.03174-4.5381 2.33108-.999 1.1543-1.8711 2.9961-1.6357 4.7622 1.7295.1352 3.4922-.8779 4.5693-2.1782 1.0752-1.3023 1.8028-3.1099 1.6045-4.91508zm-.4385 30.73488c2.0996-.0391 3.4297-1.9038 4.7159-3.7798 1.4033-2.0483 2.0253-4.0342 2.122-4.3418l.0117-.0366-.0078-.0029c-.2011-.0821-4.0888-1.6597-4.1269-6.2203-.0391-3.8969 3.1826-5.7675 3.3252-5.8613-1.8096-2.6435-4.6289-3.0063-5.6338-3.0474-1.4668-.1479-2.8906.4117-4.0527.8692-.7393.2905-1.3731.54-1.8467.54-.5264 0-1.1778-.2578-1.9082-.5473-.9571-.3794-2.0498-.8125-3.1787-.7915-2.6133.039-5.0254 1.5185-6.3711 3.8574-2.7188 4.7099-.6973 11.6885 1.9511 15.5073 1.2959 1.8677 2.837 3.9697 4.8643 3.8941 1.9512-.0782 2.6894-1.2608 5.0498-1.2608 1.2051 0 1.9668.3296 2.7002.6465.7012.3027 1.376.5942 2.3857.5752z" fill-rule="evenodd"/></g></svg>