<svg fill="none" height="25" viewBox="0 0 25 25" width="25" xmlns="http://www.w3.org/2000/svg"><path d="m12.5 0c6.9039 0 12.5 5.59687 12.5 12.5 0 6.904-5.5961 12.5-12.5 12.5-6.90399 0-12.5-5.5961-12.5-12.5 0-6.90313 5.5961-12.5 12.5-12.5z" fill="#fff"/><path d="m20.3144 8.42111c-.546.23591-1.1336.3945-1.7499.46642.6297-.36644 1.1125-.94536 1.3398-1.6367-.589.33984-1.2406.58596-1.9351.71795-.5555-.5742-1.3469-.93283-2.2235-.93283-1.6812 0-3.0453 1.32269-3.0453 2.95544 0 .23201.0267.45781.0789.67421-2.5312-.1234-4.77654-1.30076-6.27807-3.08901-.26251.43672-.41252.94373-.41252 1.48592 0 1.02499.53747 1.93119 1.3547 2.46019-.49997-.0156-.96878-.1477-1.38045-.3703v.0375c0 1.4328 1.04997 2.6274 2.44372 2.8992-.25548.0672-.52426.104-.80239.104-.19609 0-.38669-.018-.57265-.0532.38746 1.175 1.51252 2.0297 2.84611 2.0532-1.04293.7937-2.35627 1.2656-3.78357 1.2656-.24612 0-.4883-.0141-.72738-.0413 1.34921.839 2.94926 1.3288 4.6703 1.3288 5.6031 0 8.6672-4.5062 8.6672-8.4125l-.0086-.38282c.5937-.41569 1.1102-.936 1.5187-1.52977z" fill="#00adee"/></svg>